/* XPM */
static char *_acb654b98454959defadacc7c5c2351JrGoPu4jmasqLH0a[] = {
/* columns rows colors chars-per-pixel */
"64 64 129 2 ",
"   c None",
".  c #555555",
"X  c #5C5C5C",
"o  c #646464",
"O  c #696769",
"+  c #6C6C6C",
"@  c #71716F",
"#  c #6F6F70",
"$  c #706F70",
"%  c #6F7070",
"&  c #747474",
"*  c #787877",
"=  c #777778",
"-  c #787778",
";  c #777878",
":  c #7C7C7C",
">  c #817F7F",
",  c #7F807F",
"<  c #81817F",
"1  c #7F8181",
"2  c #838383",
"3  c #888787",
"4  c #878887",
"5  c #888887",
"6  c #878788",
"7  c #888788",
"8  c #878888",
"9  c #8D8D8C",
"0  c #8C8D8D",
"q  c #8D8D8D",
"w  c #8C8C8C",
"e  c #8E8E8D",
"r  c #8F8F8D",
"t  c #8E8D8E",
"y  c #8F8D8F",
"u  c #8D8E8E",
"i  c #8E8E8E",
"p  c #8F8F8E",
"a  c #8E8E8F",
"s  c gray56",
"d  c #8A8A8A",
"f  c #8F908D",
"g  c #8F908F",
"h  c #90908F",
"j  c #90908D",
"k  c #908E90",
"l  c #8F9090",
"z  c #909090",
"x  c #919190",
"c  c gray57",
"v  c #929290",
"b  c #919192",
"n  c #909292",
"m  c #919292",
"M  c #929292",
"N  c #929392",
"B  c #939392",
"V  c #939293",
"C  c #939393",
"Z  c #939394",
"A  c gray58",
"S  c #959494",
"D  c #969694",
"F  c #959596",
"G  c #969496",
"H  c #969596",
"J  c #949696",
"K  c gray59",
"L  c #979696",
"P  c #979797",
"I  c #939393",
"U  c #989896",
"Y  c #999997",
"T  c #989898",
"R  c #999899",
"E  c gray60",
"W  c #9A9999",
"Q  c #999A99",
"!  c #9A9A9A",
"~  c #9B9B9B",
"^  c #9C9B9B",
"/  c gray61",
"(  c #9C9C9D",
")  c #9D9D9D",
"_  c #9E9D9D",
"`  c #9D9E9D",
"'  c #9D9F9D",
"]  c #9E9E9C",
"[  c #9D9E9E",
"{  c #9F9F9E",
"}  c #9E9F9F",
"|  c #9F9F9F",
" . c #9B9B9B",
".. c #A09F9F",
"X. c #A0A19F",
"o. c #9E9EA0",
"O. c #A09EA0",
"+. c #A09FA0",
"@. c #A0A0A0",
"#. c #A1A2A1",
"$. c #A2A2A0",
"%. c #A0A0A2",
"&. c #A0A3A2",
"*. c #A2A2A2",
"=. c #A3A2A3",
"-. c #A5A3A3",
";. c #A3A4A3",
":. c #A3A4A4",
">. c #A4A4A4",
",. c #A4A5A4",
"<. c #A5A5A4",
"1. c gray65",
"2. c #A6A7A7",
"3. c #A3A3A4",
"4. c gray66",
"5. c #A9AAA9",
"6. c #AAA9AA",
"7. c #ABABAA",
"8. c #ACACAC",
"9. c #AEACAC",
"0. c #A9A9A9",
"q. c #B2B2B2",
"w. c #B4B5B4",
"e. c gray71",
"r. c #B8B8B7",
"t. c #BBB9B9",
"y. c #BDBBBB",
"u. c #BCBCBC",
"i. c #C1C0C0",
/* pixels */
"T 2 : ( 7.( 2 : ( e 8 O e N k 2 w F e N 2 2 T -.7.7.8 e F F ^ ^ A F #.( 2 N e.N 2 ; 3 2 8 2 h 3 F <.w.Z <.=.F 9.e.e ( ,.A ..t.: ",
"#.                            e T                             w 3                             : 2                             & ",
"7.                            F 8                             = &                             = &                             o ",
"r.                            Z :                             : 2                             2 :                             X ",
"T                             & O                             S X.                            = :                             O ",
"2                             & +                             8 8                             O &                             & ",
"+                             2 +                             2 5                             & &                             + ",
"1 O , 8 T 0 : : = 2 w 2 7 2 & & + = 2 2 : e = = = : = 2 2 w 2 2 2 : 2 2 : + & = & : N 8 e 2 < = & & 2 e = = 2 8 2 #.T , : : d 2 ",
": & 2 ( T 8 2 & & 8 e 2 2 2 & : 1 2 & 2 2 F 8 : o & O : 2 2 O X X 2 < : : : = # = 5 B N 2 2 2 8 - : 4 ( 2 = + O = O.N > 2 + ; ( ",
"              & :                             + :                             & *                             2 =               ",
"              O 2                             = 2                             e 4                             2 X               ",
"              : 2                             . O                             < e                             = O               ",
"              6 :                             X o                             2 8                             + &               ",
"              8 N                             + 5                             : #                             N :               ",
"              & 5                             : 2                             h #                             2 2               ",
"F 8 d T e e k > : & 8 2 < O X O & + X & O : * + : 8 : & = = + & N N #.o.e 2 l 8 5 : : 2 : : : & X 2 2 2 > 8 : 2 e 4 8 : X & e l ",
"A , e d 8 : 5 N N e ( N 2 : 2 = + + . O g 2 : : : 2 : : e N 8 : : 2 Z 2 : 2 8 8 2 = 2 2 2 2 2 8 : : 2 T F 7 & O : : : = & & F 2 ",
"F                             2 O                             1 O                             2 =                             $ ",
"8.                            e :                             + O                             & 2                             + ",
"X.                            O X                             & :                             : 2                             : ",
"i.                            O o                             : <                             h :                             2 ",
"y.                            - :                             T :                             { 2                             & ",
"-.                            : 2                             8 +                             2 +                             & ",
"k 2 2 7 : 8 <.8 : & + & = 8 8 8 : : O 2 2 : 2 4 : : e 5 : = : 2 o o 2 8 : : O 2 : 8 : 8 8 O O O O + F 2 : T U * = 2 : : : 8 e 2 ",
"#.e 2 2 : : N 2 = + : : : w 7 2 2 8 8 A 8 e = 2 N 2 2 < : & ; 2 o o : : 2 : O : : w h : : 2 e : + + + = 2 w = : & 2 2 2 = 2 F = ",
"              <.2                             2 (                             : :                             8 2               ",
"              8 :                             * :                             8 &                             <.<.              ",
"              = =                             O 5                             N :                             g e               ",
"              e :                             = T                             ^ =                             : 8               ",
"              w =                             & :                             N :                             O e               ",
"              : =                             & :                             ( g                             X &               ",
": & : l 1 = 2 & + & O O : #.8 5 8 2 = 2 O 2 & & + = 2 2 5 2 2 O : : 8 2 & & & = 2 + 2 0 2 N 2.2 O 2 : O & : & o . + 8 e F N 8 e ",
"( 2 : 6 e e e : : 2 : = : N ( e 2 = 2 w : : 7 > o o & * 2 2 2 O & e 8 k 2 2 : @ : = & X O 4 Z & : N : & = : 2 : 2 8 e e X + 7 e ",
"P                             e 8                             : :                             : :                             e ",
"-.                            e 2                             : e                             ( <.                            , ",
"F                             2 O                             : 2                             w N                             & ",
"u.                            : O                             : :                             * 2                             e ",
"2.                            & O                             & :                             2 >                             & ",
"<.                            + &                             o :                             e 2                             : ",
"| 2 5 2 : : : : & X : : = e 2 : 2 , , P : - 2 T N 5 2 = : 2 : : O & : 8 = O O = 2 : 2 N : 2 2 2 8 Z k 8 2 2 : : e <.~ 8 2 T o.= ",
"t.e e w 2 8 w , : : = O * 1 & : : : e e & O : 2 2 2 8 : 2 : O = + : O : : 2 : : : 2 T ( : & : O 8 2 8 8 & & + o $ ~ T e 2 = T 2 ",
"              & :                             = 2                             F :                             X =               ",
"              : N                             2 +                             8 8                             = 8               ",
"              2 =                             = :                             2 w                             ( k               ",
"              2 +                             e 2                             e &                             e e               ",
"              2 2                             = &                             : :                             = 8               ",
"              8 F                             O *                             : O                             + :               ",
"O.N T 2 : 2 & : & k 8 w ^ 3 & S T T N F 8 8 2 O = + O O 5 2 O + : 2 N 4 F T 2 & O 2 : : : : : = : X 2 = , : 2 & : Z 7 = & * : X ",
"( 8 8 S : 2 + 2 : 2 h 8 p e : : < F : + 2 2 : & O O o o = = & < 2 & = : T : : O O & N : + = 2 = : + 8 : = & & o = = O * : N 8 2 ",
"X.                            p w                             2 F                             w 3                             O.",
"T                             : :                             = U                             F N                             T ",
"u.                            2 :                             : =                             N Z                             O ",
"4.                            8 2                             = &                             : :                             2 ",
"P                             & +                             2 5                             O +                             , ",
"..                            O :                             > N                             : 2                             8 ",
"8 : : O O * * = = : e N 2 & + O 2 F 2 : 2 & o + 8 e 2 O 2 2 : 2 2 : 8 N & = = : : + 2 2 2 o O + & O = + & : : T 2 & 2 2 2 : 2 T ",
"u.#.7.e = 2 e 2 : = = F / N = = 2 : : # 2 : + & 2 8 + + 2 = : 2 : & e 2 2 : + - & & 2 N 2 = o : : : & o & : : 2 : & & : e 8 N T ",
"              : :                             & :                             : +                             & 2               ",
"              & &                             ; :                             2 :                             : 4               ",
"              2 e                             A 2                             e :                             : :               ",
"              e 2                             Z :                             8 4                             : :               ",
"              : =                             : :                             & O                             : &               ",
"              e N                             8 &                             2 &                             2 &               ",
"w X O 2 o X 8 N 2 : & : 8 : 8 T 5 2 2 + : ( 2 6 o - e 8 * X & : # O : F 2 & 8 = 6 2 #.#.( 2 & 2 8 & : : & X O : 8 2 F 8 = o : O "
};
